<svg xmlns="http://www.w3.org/2000/svg" viewBox="0 0 45 46.26"><defs><style>.cls-1{fill:#131617;}</style></defs><title>icon_divider</title><g id="Layer_2" data-name="Layer 2"><g id="Inicio"><g id="Main"><g id="Section-1"><rect class="cls-1" x="-0.54" y="30.34" width="20.66" height="9.98" rx="0.88" transform="translate(-24.48 22.3) rotate(-53.71)"/><path class="cls-1" d="M45,38.63,33.58,25.47a.21.21,0,0,0-.29,0l-8.41,7.28a.19.19,0,0,0,0,.28L36.24,46.18a.2.2,0,0,0,.2.07A12.11,12.11,0,0,0,41,43.45,17.55,17.55,0,0,0,45,38.86.18.18,0,0,0,45,38.63Z"/><rect class="cls-1" x="19.39" y="21.37" width="11.35" height="6.13" rx="0.29" transform="translate(-9.88 22.33) rotate(-40.83)"/><path class="cls-1" d="M18.39,22.92l-2.34,3.19a.31.31,0,0,0,.07.43l.16.12a.31.31,0,0,0,.43-.07l2.23-3,.58.68a.21.21,0,0,0,.29,0l5.9-5.1a.22.22,0,0,0,0-.29l-1.81-2.1,3.3-4.49.67.5a.26.26,0,0,0,.37-.06l.11-.15a.26.26,0,0,0-.06-.37l-.67-.49.84-1.15,1.32,1a.29.29,0,0,0,.41-.06l.12-.17a.29.29,0,0,0-.06-.41L29,9.92l1-1.38,1.79,1.31a.3.3,0,0,0,.41-.06l.12-.17a.3.3,0,0,0-.06-.41L30.43,7.9l.76-1,2.33,1.72a.3.3,0,0,0,.41-.06l.12-.17A.29.29,0,0,0,34,8L31.66,6.24l.73-1,1.78,1.31a.29.29,0,0,0,.41-.06l.12-.17a.3.3,0,0,0-.06-.41L32.86,4.6l.84-1.15,1.32,1a.29.29,0,0,0,.41-.06l.12-.17a.29.29,0,0,0-.06-.41l-1.32-1L35,1.65l.75.55a.26.26,0,0,0,.37-.06l.1-.14a.26.26,0,0,0-.05-.37l-.75-.55.2-.27a.33.33,0,0,0-.06-.44L35.42.26A.31.31,0,0,0,35,.32L34.78.6,34,.05a.26.26,0,0,0-.37.06l-.1.14a.26.26,0,0,0,.06.37l.75.55-.86,1.16-1.32-1a.3.3,0,0,0-.41.06l-.12.17a.3.3,0,0,0,.06.41L33,3,32.2,4.12,30.41,2.81a.3.3,0,0,0-.41.06L29.88,3a.29.29,0,0,0,.07.41l1.78,1.31-.73,1L28.66,4a.29.29,0,0,0-.41.06l-.12.17a.3.3,0,0,0,.06.41l2.34,1.71-.75,1L28,6.11a.29.29,0,0,0-.41.06l-.12.17a.3.3,0,0,0,.06.41l1.79,1.31-1,1.37L27,8.46a.3.3,0,0,0-.41.07l-.13.16a.3.3,0,0,0,.07.41l1.32,1L27,11.22l-.68-.49a.27.27,0,0,0-.37,0l-.11.15a.27.27,0,0,0,.06.37l.68.5-3.19,4.34L12.63,3.71a.2.2,0,0,0-.35.08L9.9,13a.22.22,0,0,0,0,.19Z"/><rect class="cls-1" x="21.64" y="27.04" width="12.89" height="1.75" rx="0.73" transform="translate(-11.42 25.16) rotate(-40.83)"/></g></g></g></g></svg>