<svg xmlns="http://www.w3.org/2000/svg" viewBox="0 0 144.15 78.03"><defs><style>.cls-1,.cls-2{fill:#131617;}.cls-1{stroke:#fff;stroke-miterlimit:10;}</style></defs><title>logo-isi</title><g id="Layer_2" data-name="Layer 2"><g id="Full_page" data-name="Full page"><g id="Header_Full_page" data-name="Header Full page"><g id="Logo_copy_4" data-name="Logo copy 4"><circle class="cls-1" cx="121.32" cy="21.15" r="19.4"/><path class="cls-1" d="M110.81,37.46s20-13.71,1-33.22"/><line class="cls-1" x1="114.81" y1="33.76" x2="122.1" y2="40.54"/><line class="cls-1" x1="117.79" y1="29.48" x2="131.43" y2="37.72"/><line class="cls-1" x1="119.65" y1="24.52" x2="138.85" y2="29.48"/><line class="cls-1" x1="120.02" y1="20.13" x2="140.73" y2="20.13"/><line class="cls-1" x1="119.34" y1="16.24" x2="138.3" y2="11.76"/><line class="cls-1" x1="117.35" y1="11.47" x2="131.12" y2="4.4"/><line class="cls-1" x1="114.63" y1="7.42" x2="121.32" y2="1.75"/><path class="cls-2" d="M98.74,21.09A21.17,21.17,0,0,1,112.23,1.63a21.16,21.16,0,1,0-.49,39.24A21.14,21.14,0,0,1,98.74,21.09Z"/><path class="cls-2" d="M10.05,11.58V34.35c0,2,.36,2.48,2.43,2.48h.81v.32H4.2v-.32H5c2.07,0,2.44-.45,2.44-2.48V11.58C7.45,9.51,7.08,9.1,5,9.1H4.2V8.74h9.09V9.1h-.81C10.41,9.1,10.05,9.51,10.05,11.58Z"/><path class="cls-2" d="M45.28,30.45c-.65,4-4.55,6.94-9.82,6.94-5.93,0-9.26-3.2-10.35-3-.53.08-.49.89-.49,2.8v.57h-.37V28.22h.37v1.5c0,3.86,4.71,6.9,10.23,7.27,5,.28,8.12-1.91,8.44-5.77.41-4.83-4.87-6.17-9.58-8.2-5.88-2.51-8-4.91-7.26-9,.73-3.89,5.6-5.68,8.72-5.56,4.95.21,6.74,2.76,7.59,2.36.37-.12.25-.57.25-2.48V7.8h.36v9.58H43v-1.5c0-3.85-2.48-6.74-7.84-7-3.41-.16-6.37,1.26-6.61,4.95-.17,2.72,1.78,4.67,7,6.82C42.28,23.43,46.13,25.26,45.28,30.45Z"/><path class="cls-2" d="M61.6,11.58V34.35c0,2,.37,2.48,2.44,2.48h.81v.32H55.76v-.32h.81c2.07,0,2.43-.45,2.43-2.48V11.58c0-2.07-.36-2.48-2.43-2.48h-.81V8.74h9.09V9.1H64C62,9.1,61.6,9.51,61.6,11.58Z"/><path class="cls-2" d="M13.34,74.29A6.75,6.75,0,0,1,7,77.84C3.4,77.62.18,75.22,0,71.32A7,7,0,0,1,7.14,64c2.9.1,4,1.63,4.61,1.57.23,0,.21-.45.21-1.34V64h.18v4.57H12v-.73c0-1.9-2-3.67-5.13-3.61S1.31,67,1.38,70.7A6.47,6.47,0,0,0,7.6,77.41a5.94,5.94,0,0,0,5.6-3.2Z"/><path class="cls-2" d="M33.18,70.94c0,4-2.87,6.9-7.21,6.9s-7.21-3-7.21-6.9S21.61,64,26,64,33.18,67,33.18,70.94Zm-1.32,0c0-4-2.29-6.69-5.89-6.69S20.08,67,20.08,70.94s2.29,6.68,5.89,6.68S31.86,74.89,31.86,70.94Z"/><path class="cls-2" d="M48.44,74.52c-.31,1.92-2.17,3.32-4.69,3.32-2.82,0-4.41-1.54-4.94-1.42-.25,0-.23.43-.23,1.34V78h-.17V73.46h.17v.71c0,1.84,2.25,3.3,4.88,3.47,2.39.14,3.88-.91,4-2.75.19-2.31-2.33-3-4.58-3.92-2.81-1.2-3.84-2.34-3.47-4.28S42.13,64,43.62,64c2.36.1,3.22,1.32,3.62,1.12.18-.06.12-.27.12-1.18v-.27h.17v4.57h-.17v-.72c0-1.84-1.18-3.21-3.74-3.33-1.63-.08-3,.6-3.16,2.37-.08,1.29.85,2.22,3.33,3.25C47,71.17,48.85,72,48.44,74.52Z"/><path class="cls-2" d="M68,65.51V76.38c0,1,.18,1.18,1.17,1.18h.39v.16H65.16v-.16h.39c1,0,1.16-.21,1.16-1.18V64.54L61.31,74h-.23l-5.55-8.74V76.38c0,1,.7,1.18,1.69,1.18h.39v.16H53.25v-.16h.38c1,0,1.69-.21,1.69-1.18V65.51c0-1-.7-1.18-1.69-1.18h-.38v-.18h3.14l5.4,8.59,4.92-8.59h2.8v.18h-.39C68.13,64.33,68,64.52,68,65.51Z"/><path class="cls-2" d="M84.4,73.88v3.84H74.15v-.16h.39c1,0,1.16-.21,1.16-1.18V65.51c0-1-.17-1.18-1.16-1.18h-.39v-.18h9.9V68H83.9V65.92c0-1-.19-1.53-1.18-1.53H77v6.33h3.92c1,0,1.18-.62,1.18-1.61v-.38h.17v4.18h-.17v-.36c0-1-.19-1.61-1.18-1.61H77v6.55h6.11c1,0,1.16-.55,1.16-1.53V73.88Z"/><path class="cls-2" d="M101.07,64.15V68h-.16V65.92c0-1-.21-1.53-1.18-1.53H96.16v12c0,1,.18,1.18,1.17,1.18h.38v.16H93.37v-.16h.37c1,0,1.16-.21,1.16-1.18v-12H91.36c-1,0-1.18.54-1.18,1.53V68H90V64.15Z"/><path class="cls-2" d="M109.08,65.51V76.38c0,1,.18,1.18,1.17,1.18h.39v.16h-4.35v-.16h.39c1,0,1.16-.21,1.16-1.18V65.51c0-1-.17-1.18-1.16-1.18h-.39v-.18h4.35v.18h-.39C109.26,64.33,109.08,64.52,109.08,65.51Z"/><path class="cls-2" d="M128.83,74.29a6.75,6.75,0,0,1-6.38,3.55c-3.56-.22-6.78-2.62-7-6.52a7,7,0,0,1,7.13-7.3c2.91.1,4,1.63,4.61,1.57.23,0,.21-.45.21-1.34V64h.18v4.57h-.18v-.73c0-1.9-2-3.67-5.13-3.61S116.8,67,116.87,70.7a6.47,6.47,0,0,0,6.22,6.71,5.94,5.94,0,0,0,5.6-3.2Z"/><path class="cls-2" d="M144.1,74.52c-.31,1.92-2.17,3.32-4.69,3.32-2.83,0-4.42-1.54-4.94-1.42-.26,0-.24.43-.24,1.34V78h-.17V73.46h.17v.71c0,1.84,2.25,3.3,4.89,3.47,2.38.14,3.87-.91,4-2.75.19-2.31-2.33-3-4.58-3.92-2.81-1.2-3.83-2.34-3.46-4.28S137.78,64,139.27,64c2.37.1,3.22,1.32,3.63,1.12.17-.06.11-.27.11-1.18v-.27h.18v4.57H143v-.72c0-1.84-1.18-3.21-3.74-3.33-1.63-.08-3,.6-3.16,2.37-.07,1.29.86,2.22,3.34,3.25C142.66,71.17,144.5,72,144.1,74.52Z"/></g></g></g></g></svg>